<svg width="30" height="30" viewBox="0 0 30 30" fill="none" xmlns="http://www.w3.org/2000/svg">
<path d="M12.4603 16.895H6.92733C4.38133 16.895 7.69133 6 9.51533 6H22.0363C22.5683 6 23.0003 6.424 23.0003 6.947V16.332C22.9998 16.5031 22.9529 16.6709 22.8645 16.8175C22.776 16.964 22.6495 17.0838 22.4983 17.164C20.4363 18.27 18.0173 19.176 16.8203 21.293L15.5403 23.559C15.4637 23.6934 15.3528 23.805 15.2189 23.8825C15.085 23.9599 14.933 24.0005 14.7783 24C11.5983 24 12.5413 19.37 12.9733 17.53C12.9907 17.4534 12.9905 17.3738 12.9727 17.2973C12.955 17.2208 12.9201 17.1493 12.8707 17.0882C12.8213 17.0271 12.7588 16.978 12.6877 16.9445C12.6166 16.911 12.5389 16.8941 12.4603 16.895Z" stroke="#F0F4FE" stroke-opacity="0.5" stroke-width="2.3" stroke-linecap="round" stroke-linejoin="round"/>
</svg>
