<svg width="25" height="26" viewBox="0 0 25 26" fill="none" xmlns="http://www.w3.org/2000/svg">
<path d="M1.35714 7.27293C2.41885 5.1601 4.04697 3.38398 6.05969 2.14291C8.07242 0.901853 10.3905 0.244712 12.7551 0.244873C16.1926 0.244873 19.0804 1.5089 21.2883 3.56758L17.6314 7.22574C16.3087 5.96171 14.6276 5.31758 12.7551 5.31758C9.4324 5.31758 6.6199 7.56248 5.61862 10.5765C5.36352 11.3418 5.21811 12.1581 5.21811 13C5.21811 13.8418 5.36352 14.6581 5.61862 15.4234C6.62117 18.4387 9.4324 20.6824 12.7551 20.6824C14.4707 20.6824 15.9311 20.2296 17.074 19.4643C17.7365 19.028 18.3037 18.462 18.7413 17.8004C19.1789 17.1387 19.4778 16.3952 19.6199 15.6148H12.7551V10.6811H24.7679C24.9184 11.5153 25 12.3852 25 13.2895C25 17.1747 23.6097 20.4451 21.1964 22.6645C19.0867 24.6135 16.199 25.7551 12.7551 25.7551C11.0799 25.7557 9.42097 25.4263 7.87314 24.7855C6.32532 24.1448 4.91894 23.2052 3.73439 22.0207C2.54983 20.8361 1.61033 19.4298 0.96956 17.8819C0.328793 16.3341 -0.000669466 14.6752 1.02132e-06 13C1.02132e-06 10.9413 0.492348 8.99487 1.35714 7.27293Z" fill="#F0F4FE"/>
</svg>
