<svg width="30" height="30" viewBox="0 0 30 30" fill="none" xmlns="http://www.w3.org/2000/svg">
<path d="M6.66702 13.9879L14.6487 21.9696L22.6304 13.9879C23.3361 13.2822 23.7325 12.3251 23.7325 11.3272C23.7325 10.3292 23.3361 9.37206 22.6304 8.66638C22.281 8.31697 21.8661 8.03979 21.4096 7.85069C20.9531 7.66159 20.4638 7.56426 19.9696 7.56426C18.9716 7.56426 18.0145 7.9607 17.3088 8.66638L14.6487 11.3265L11.9886 8.66764C11.2811 7.97142 10.3272 7.58297 9.33457 7.5869C8.34199 7.59082 7.39117 7.9868 6.68922 8.68859C5.98727 9.39037 5.59106 10.3411 5.5869 11.3337C5.58275 12.3263 5.97097 13.2803 6.66702 13.9879ZM13.762 6.8917L14.6487 7.77841L15.5354 6.8917C16.1168 6.3052 16.8083 5.83931 17.5702 5.52078C18.3321 5.20224 19.1495 5.03734 19.9753 5.03553C20.8011 5.03372 21.6192 5.19505 22.3825 5.51024C23.1458 5.82543 23.8393 6.28829 24.4233 6.87224C25.0072 7.45618 25.4701 8.14972 25.7853 8.91303C26.1005 9.67634 26.2618 10.4944 26.26 11.3202C26.2582 12.146 26.0933 12.9634 25.7747 13.7253C25.4562 14.4872 24.9903 15.1787 24.4038 15.7601L15.5367 24.6285C15.4202 24.7451 15.2819 24.8376 15.1296 24.9007C14.9774 24.9638 14.8141 24.9963 14.6493 24.9963C14.4845 24.9963 14.3213 24.9638 14.169 24.9007C14.0168 24.8376 13.8785 24.7451 13.762 24.6285L4.89359 15.7614C4.29911 15.1818 3.82563 14.4901 3.50059 13.7261C3.17556 12.9622 3.00545 12.1413 3.00013 11.3111C2.99481 10.481 3.15439 9.65798 3.46961 8.88995C3.78483 8.12192 4.24941 7.42412 4.83641 6.83704C5.42341 6.24995 6.12114 5.78527 6.88913 5.46994C7.65711 5.15462 8.48007 4.99492 9.31026 5.00012C10.1404 5.00532 10.9613 5.17532 11.7253 5.50025C12.4893 5.82517 13.1811 6.29856 13.7607 6.89295L13.762 6.8917Z" fill="#F0F4FE"/>
</svg>
