<svg width="184" height="45" viewBox="0 0 184 45" fill="none" xmlns="http://www.w3.org/2000/svg">
<g filter="url(#filter0_d_14_1544)">
<path d="M5.64041 34.8643C5.64041 35.5309 5.41056 36.0365 4.95087 36.3813C4.51416 36.7261 4.03148 36.8985 3.50283 36.8985C2.97419 36.8985 2.49151 36.7376 2.0548 36.4158C1.64108 36.071 1.43422 35.5539 1.43422 34.8643V27.7965C1.4572 26.6013 1.69854 25.5211 2.15823 24.5557C2.61793 23.5674 3.16956 22.7399 3.81313 22.0734C4.47968 21.3838 5.18071 20.8552 5.91622 20.4874C6.67471 20.1197 7.36425 19.9358 7.98484 19.9358C8.55946 19.9358 9.01915 20.0967 9.36392 20.4185C9.73167 20.7403 9.91555 21.2344 9.91555 21.901C9.91555 21.832 9.91555 21.878 9.91555 22.0389C9.91555 22.1998 9.88107 22.3952 9.81212 22.625C9.74316 22.8548 9.60526 23.0962 9.3984 23.349C9.21452 23.6018 8.91572 23.7972 8.50199 23.9351C7.60559 24.2569 6.95053 24.6936 6.53681 25.2452C6.12308 25.7739 5.84727 26.4749 5.70936 27.3483C5.59444 28.2218 5.54847 29.2791 5.57145 30.5202C5.61742 31.7384 5.64041 33.1864 5.64041 34.8643ZM12.3672 28.2792C12.3672 27.0381 12.6085 25.8658 13.0912 24.7626C13.5739 23.6593 14.2289 22.694 15.0564 21.8665C15.8838 21.0391 16.8607 20.384 17.9869 19.9013C19.1132 19.4186 20.3314 19.1773 21.6415 19.1773C22.9516 19.1773 24.1698 19.4186 25.296 19.9013C26.4223 20.361 27.3991 21.0046 28.2266 21.832C29.077 22.6595 29.7436 23.6248 30.2263 24.7281C30.7089 25.8314 30.9503 27.0151 30.9503 28.2792V35.0712C30.9503 35.6918 30.7319 36.163 30.2952 36.4847C29.8585 36.7835 29.3758 36.9329 28.8472 36.9329C28.3185 36.9329 27.8244 36.7835 27.3647 36.4847C26.928 36.163 26.7096 35.6918 26.7096 35.0712V28.2792C26.7096 27.3828 26.5602 26.6013 26.2614 25.9348C25.9856 25.2682 25.6178 24.7166 25.1581 24.2799C24.6984 23.8202 24.1583 23.4869 23.5377 23.2801C22.9401 23.0502 22.331 22.9353 21.7104 22.9353C21.0669 22.9353 20.4348 23.0502 19.8142 23.2801C19.2166 23.4869 18.6765 23.8202 18.1938 24.2799C17.7111 24.7166 17.3204 25.2682 17.0216 25.9348C16.7458 26.6013 16.6079 27.3828 16.6079 28.2792C16.6079 28.9458 16.7228 29.6008 16.9526 30.2444C17.2055 30.865 17.5502 31.4281 17.9869 31.9338C18.4466 32.4394 18.9868 32.8532 19.6073 33.175C20.2279 33.4738 20.906 33.6232 21.6415 33.6232C21.7794 33.6232 21.9633 33.6117 22.1931 33.5887C22.423 33.5657 22.6643 33.5772 22.9171 33.6232C23.193 33.6691 23.4458 33.7726 23.6756 33.9334C23.9285 34.0943 24.1353 34.3587 24.2962 34.7264C24.4801 35.1631 24.5376 35.5539 24.4686 35.8986C24.3996 36.2204 24.2388 36.4962 23.9859 36.7261C23.7331 36.9559 23.3883 37.1283 22.9516 37.2432C22.5379 37.3582 22.0782 37.4156 21.5725 37.4156C20.6761 37.4156 19.6878 37.2317 18.6075 36.864C17.5502 36.4962 16.5504 35.9446 15.608 35.2091C14.6886 34.4506 13.9186 33.4967 13.2981 32.3475C12.6775 31.1983 12.3672 29.8422 12.3672 28.2792ZM44.0044 37.3122C42.6943 37.3122 41.4761 37.0708 40.3498 36.5882C39.2236 36.1055 38.2467 35.4504 37.4193 34.623C36.5918 33.7955 35.9368 32.8302 35.4541 31.7269C34.9714 30.6237 34.7301 29.4514 34.7301 28.2103C34.7301 26.6473 35.0404 25.3027 35.661 24.1765C36.2815 23.0272 37.0515 22.0849 37.9709 21.3494C38.9133 20.5909 39.9246 20.0277 41.0049 19.66C42.0852 19.2922 43.0735 19.1083 43.9699 19.1083C44.4756 19.1083 44.9353 19.1658 45.349 19.2807C45.7627 19.3957 46.096 19.568 46.3488 19.7979C46.6016 20.0277 46.7625 20.315 46.8315 20.6598C46.9004 20.9816 46.843 21.3608 46.6591 21.7976C46.4982 22.1653 46.2914 22.4296 46.0385 22.5905C45.8087 22.7514 45.5673 22.8548 45.3145 22.9008C45.0617 22.9468 44.8088 22.9583 44.556 22.9353C44.3262 22.9123 44.1423 22.9008 44.0044 22.9008C43.2689 22.9008 42.5908 23.0617 41.9702 23.3835C41.3497 23.6823 40.8095 24.0845 40.3498 24.5902C39.9131 25.0958 39.5683 25.6705 39.3155 26.314C39.0857 26.9346 38.9707 27.5667 38.9707 28.2103C38.9707 29.1067 39.1086 29.8881 39.3845 30.5547C39.6833 31.2213 40.074 31.7844 40.5567 32.2441C41.0394 32.6808 41.5795 33.0141 42.1771 33.2439C42.7977 33.4738 43.4298 33.5887 44.0733 33.5887C44.6939 33.5887 45.303 33.4852 45.9006 33.2784C46.4982 33.0485 47.0269 32.7153 47.4866 32.2785C47.9692 31.8189 48.3485 31.2557 48.6243 30.5892C48.9231 29.8996 49.0725 29.1067 49.0725 28.2103V14.6263C49.0725 14.0058 49.2908 13.5461 49.7276 13.2473C50.1872 12.9255 50.6814 12.7646 51.2101 12.7646C51.7387 12.7646 52.2214 12.9255 52.6581 13.2473C53.0948 13.5461 53.3132 14.0058 53.3132 14.6263V28.2103C53.3132 29.4744 53.0718 30.6581 52.5891 31.7614C52.1065 32.8647 51.4399 33.83 50.5895 34.6575C49.762 35.4849 48.7852 36.14 47.6589 36.6226C46.5327 37.0823 45.3145 37.3122 44.0044 37.3122ZM57.7825 21.7976C57.7825 21.085 58.0009 20.5564 58.4376 20.2116C58.8743 19.8668 59.357 19.6945 59.8856 19.6945C60.4142 19.6945 60.8969 19.8668 61.3336 20.2116C61.7703 20.5564 61.9887 21.085 61.9887 21.7976V34.7954C61.9887 35.4849 61.7703 36.0136 61.3336 36.3813C60.8969 36.7261 60.4142 36.8985 59.8856 36.8985C59.357 36.8985 58.8743 36.7261 58.4376 36.3813C58.0009 36.0136 57.7825 35.4849 57.7825 34.7954V21.7976ZM59.8511 16.9018C59.1616 16.9018 58.6444 16.695 58.2997 16.2812C57.9779 15.8445 57.817 15.3733 57.817 14.8677C57.817 14.339 57.9894 13.8564 58.3341 13.4196C58.6789 12.9829 59.2076 12.7646 59.9201 12.7646C60.6096 12.7646 61.1268 12.9829 61.4715 13.4196C61.8163 13.8564 61.9887 14.339 61.9887 14.8677C61.9887 15.3733 61.8048 15.8445 61.4371 16.2812C61.0923 16.695 60.5636 16.9018 59.8511 16.9018ZM65.7863 28.2792C65.7863 27.0381 66.0161 25.8658 66.4758 24.7626C66.9585 23.6593 67.6136 22.694 68.441 21.8665C69.2914 21.0391 70.2798 20.384 71.406 19.9013C72.5323 19.4186 73.7505 19.1773 75.0606 19.1773C76.3707 19.1773 77.5889 19.4186 78.7151 19.9013C79.8414 20.361 80.8182 21.0046 81.6457 21.832C82.4961 22.6595 83.1627 23.6248 83.6453 24.7281C84.128 25.8314 84.3694 27.0151 84.3694 28.2792C84.3694 29.5204 84.128 30.6926 83.6453 31.7959C83.1857 32.8761 82.5306 33.83 81.6802 34.6575C80.8527 35.4849 79.8644 36.14 78.7151 36.6226C77.5889 37.1053 76.3707 37.3467 75.0606 37.3467C73.7505 37.3467 72.5208 37.1053 71.3715 36.6226C70.2453 36.14 69.2685 35.4849 68.441 34.6575C67.6136 33.83 66.9585 32.8647 66.4758 31.7614C66.0161 30.6581 65.7863 29.4974 65.7863 28.2792ZM75.0606 23.3145C73.9573 23.3145 73.0264 23.5674 72.2679 24.073C71.5324 24.5557 70.9693 25.1648 70.5786 25.9003C70.2108 26.6128 70.0269 27.4058 70.0269 28.2792C70.0269 29.1297 70.2108 29.9226 70.5786 30.6581C70.9463 31.3707 71.498 31.9797 72.2335 32.4854C72.992 32.9681 73.9343 33.2094 75.0606 33.2094C76.1868 33.2094 77.1177 32.9681 77.8532 32.4854C78.6117 31.9797 79.1748 31.3707 79.5426 30.6581C79.9103 29.9226 80.0942 29.1297 80.0942 28.2792C80.0942 27.4058 79.9103 26.6128 79.5426 25.9003C79.1748 25.1648 78.6117 24.5557 77.8532 24.073C77.1177 23.5674 76.1868 23.3145 75.0606 23.3145ZM85.9583 22.6595C85.7514 22.2458 85.671 21.855 85.7169 21.4873C85.7859 21.1195 85.9238 20.8092 86.1306 20.5564C86.3375 20.2806 86.6018 20.0622 86.9236 19.9013C87.2454 19.7404 87.5787 19.66 87.9234 19.66C88.2912 19.66 88.636 19.7634 88.9578 19.9703C89.2795 20.1542 89.5439 20.453 89.7507 20.8667L95.0257 32.0027L100.266 20.8667C100.473 20.453 100.737 20.1542 101.059 19.9703C101.381 19.7634 101.726 19.66 102.093 19.66C102.438 19.66 102.772 19.7404 103.093 19.9013C103.415 20.0622 103.679 20.2806 103.886 20.5564C104.093 20.8092 104.22 21.1195 104.266 21.4873C104.334 21.855 104.266 22.2458 104.059 22.6595L97.8873 35.7607C97.7034 36.1285 97.4736 36.3928 97.1978 36.5537C96.9449 36.7146 96.6461 36.8295 96.3014 36.8985C95.9796 36.9444 95.6118 36.9559 95.1981 36.9329C94.8074 36.91 94.4051 36.8985 93.9914 36.8985C93.6926 36.8985 93.4398 36.8755 93.2329 36.8295C93.049 36.7835 92.8422 36.6226 92.6123 36.3468C92.3825 36.071 92.1067 35.6458 91.7849 35.0712C91.4861 34.4966 91.0838 33.6806 90.5782 32.6233C90.0955 31.566 89.4749 30.2329 88.7164 28.624C87.9809 27.0151 87.0615 25.0269 85.9583 22.6595ZM105.394 28.2792C105.394 27.0381 105.624 25.8658 106.084 24.7626C106.567 23.6593 107.222 22.694 108.049 21.8665C108.9 21.0391 109.888 20.384 111.014 19.9013C112.14 19.4186 113.359 19.1773 114.669 19.1773C115.979 19.1773 117.197 19.4186 118.323 19.9013C119.449 20.361 120.426 21.0046 121.254 21.832C122.104 22.6595 122.771 23.6248 123.253 24.7281C123.736 25.8314 123.977 27.0151 123.977 28.2792C123.977 29.5204 123.736 30.6926 123.253 31.7959C122.794 32.8761 122.139 33.83 121.288 34.6575C120.461 35.4849 119.472 36.14 118.323 36.6226C117.197 37.1053 115.979 37.3467 114.669 37.3467C113.359 37.3467 112.129 37.1053 110.98 36.6226C109.853 36.14 108.877 35.4849 108.049 34.6575C107.222 33.83 106.567 32.8647 106.084 31.7614C105.624 30.6581 105.394 29.4974 105.394 28.2792ZM114.669 23.3145C113.565 23.3145 112.635 23.5674 111.876 24.073C111.141 24.5557 110.577 25.1648 110.187 25.9003C109.819 26.6128 109.635 27.4058 109.635 28.2792C109.635 29.1297 109.819 29.9226 110.187 30.6581C110.554 31.3707 111.106 31.9797 111.842 32.4854C112.6 32.9681 113.542 33.2094 114.669 33.2094C115.795 33.2094 116.726 32.9681 117.461 32.4854C118.22 31.9797 118.783 31.3707 119.151 30.6581C119.518 29.9226 119.702 29.1297 119.702 28.2792C119.702 27.4058 119.518 26.6128 119.151 25.9003C118.783 25.1648 118.22 24.5557 117.461 24.073C116.726 23.5674 115.795 23.3145 114.669 23.3145ZM127.773 14.9022C127.773 14.1896 127.992 13.661 128.428 13.3162C128.888 12.9714 129.382 12.7991 129.911 12.7991C130.44 12.7991 130.922 12.9714 131.359 13.3162C131.796 13.661 132.014 14.1896 132.014 14.9022V34.7954C132.014 35.4849 131.796 36.0136 131.359 36.3813C130.922 36.7261 130.44 36.8985 129.911 36.8985C129.382 36.8985 128.888 36.7261 128.428 36.3813C127.992 36.0136 127.773 35.4849 127.773 34.7954V14.9022ZM136.5 27.3483C136.5 26.0152 136.742 24.843 137.224 23.8317C137.73 22.8204 138.385 21.9699 139.19 21.2804C140.017 20.5909 140.936 20.0737 141.948 19.7289C142.982 19.3612 144.028 19.1773 145.085 19.1773C146.119 19.1773 147.119 19.3497 148.085 19.6945C149.05 20.0162 149.912 20.5104 150.67 21.177C151.429 21.8435 152.038 22.694 152.498 23.7283C152.957 24.7626 153.187 25.9693 153.187 27.3483V34.7954C153.187 35.4849 152.957 36.0136 152.498 36.3813C152.061 36.7261 151.578 36.8985 151.05 36.8985C150.521 36.8985 150.038 36.7261 149.602 36.3813C149.165 36.0365 148.947 35.5079 148.947 34.7954V27.3483C148.947 26.6818 148.82 26.1072 148.567 25.6245C148.338 25.1188 148.027 24.7051 147.636 24.3833C147.269 24.0386 146.832 23.7857 146.326 23.6248C145.821 23.441 145.315 23.349 144.809 23.349C144.304 23.349 143.798 23.441 143.292 23.6248C142.81 23.7857 142.373 24.0386 141.982 24.3833C141.614 24.7051 141.304 25.1188 141.051 25.6245C140.822 26.1072 140.707 26.6818 140.707 27.3483V34.7954C140.707 35.4849 140.488 36.0136 140.052 36.3813C139.615 36.7261 139.132 36.8985 138.604 36.8985C138.075 36.8985 137.592 36.7261 137.155 36.3813C136.719 36.0136 136.5 35.4849 136.5 34.7954V27.3483ZM156.995 28.2792C156.995 27.0381 157.237 25.8658 157.719 24.7626C158.202 23.6593 158.857 22.694 159.685 21.8665C160.512 21.0391 161.489 20.384 162.615 19.9013C163.741 19.4186 164.96 19.1773 166.27 19.1773C167.58 19.1773 168.798 19.4186 169.924 19.9013C171.05 20.361 172.027 21.0046 172.855 21.832C173.705 22.6595 174.372 23.6248 174.854 24.7281C175.337 25.8314 175.578 27.0151 175.578 28.2792V35.0712C175.578 35.6918 175.36 36.163 174.923 36.4847C174.487 36.7835 174.004 36.9329 173.475 36.9329C172.947 36.9329 172.453 36.7835 171.993 36.4847C171.556 36.163 171.338 35.6918 171.338 35.0712V28.2792C171.338 27.3828 171.188 26.6013 170.89 25.9348C170.614 25.2682 170.246 24.7166 169.786 24.2799C169.327 23.8202 168.786 23.4869 168.166 23.2801C167.568 23.0502 166.959 22.9353 166.339 22.9353C165.695 22.9353 165.063 23.0502 164.442 23.2801C163.845 23.4869 163.305 23.8202 162.822 24.2799C162.339 24.7166 161.949 25.2682 161.65 25.9348C161.374 26.6013 161.236 27.3828 161.236 28.2792C161.236 28.9458 161.351 29.6008 161.581 30.2444C161.834 30.865 162.178 31.4281 162.615 31.9338C163.075 32.4394 163.615 32.8532 164.236 33.175C164.856 33.4738 165.534 33.6232 166.27 33.6232C166.408 33.6232 166.591 33.6117 166.821 33.5887C167.051 33.5657 167.292 33.5772 167.545 33.6232C167.821 33.6691 168.074 33.7726 168.304 33.9334C168.557 34.0943 168.763 34.3587 168.924 34.7264C169.108 35.1631 169.166 35.5539 169.097 35.8986C169.028 36.2204 168.867 36.4962 168.614 36.7261C168.361 36.9559 168.016 37.1283 167.58 37.2432C167.166 37.3582 166.706 37.4156 166.201 37.4156C165.304 37.4156 164.316 37.2317 163.236 36.864C162.178 36.4962 161.179 35.9446 160.236 35.2091C159.317 34.4506 158.547 33.4967 157.926 32.3475C157.306 31.1983 156.995 29.8422 156.995 28.2792Z" fill="#F0F4FE"/>
<path d="M141.656 11V3.80724H139.774V2.58379C140.142 2.56586 140.469 2.52553 140.756 2.46279C141.043 2.40005 141.298 2.29249 141.522 2.14012C141.755 1.98775 141.961 1.77264 142.14 1.49479H143.337V11H141.656ZM149.923 11.1076C149.233 11.1076 148.646 10.9866 148.162 10.7446C147.678 10.4936 147.288 10.1441 146.992 9.69592C146.696 9.24777 146.477 8.7324 146.333 8.1498C146.199 7.56721 146.132 6.9398 146.132 6.26758C146.132 5.58639 146.199 4.95002 146.333 4.35846C146.477 3.7669 146.696 3.25153 146.992 2.81235C147.297 2.3642 147.691 2.01464 148.175 1.76368C148.659 1.50375 149.246 1.37379 149.936 1.37379C150.644 1.37379 151.24 1.50823 151.724 1.77712C152.217 2.04601 152.607 2.40901 152.894 2.86612C153.19 3.32324 153.401 3.84309 153.526 4.42568C153.66 5.00828 153.728 5.61776 153.728 6.25413C153.728 6.88154 153.66 7.48654 153.526 8.06914C153.401 8.65173 153.19 9.17158 152.894 9.62869C152.598 10.0858 152.204 10.4488 151.711 10.7177C151.227 10.9776 150.631 11.1076 149.923 11.1076ZM149.923 9.57492C150.38 9.57492 150.748 9.46736 151.025 9.25225C151.312 9.03714 151.527 8.76377 151.671 8.43214C151.814 8.09154 151.908 7.72854 151.953 7.34313C152.007 6.95773 152.034 6.59472 152.034 6.25413C152.034 5.91354 152.011 5.55502 151.966 5.17857C151.922 4.79317 151.828 4.43016 151.684 4.08957C151.541 3.74898 151.33 3.47112 151.052 3.25601C150.774 3.0409 150.402 2.93335 149.936 2.93335C149.47 2.93335 149.094 3.0409 148.807 3.25601C148.529 3.47112 148.319 3.74898 148.175 4.08957C148.032 4.4212 147.933 4.77972 147.879 5.16513C147.835 5.55054 147.812 5.91354 147.812 6.25413C147.812 6.59472 147.835 6.95773 147.879 7.34313C147.924 7.71958 148.014 8.0781 148.148 8.41869C148.292 8.75928 148.502 9.03714 148.78 9.25225C149.067 9.46736 149.448 9.57492 149.923 9.57492ZM159.188 11.1076C158.766 11.1076 158.35 11.0583 157.937 10.9597C157.525 10.8611 157.149 10.7087 156.808 10.5026C156.467 10.2875 156.181 10.0096 155.948 9.66903C155.723 9.32843 155.58 8.91614 155.517 8.43214H157.184C157.265 8.70999 157.408 8.92958 157.615 9.09092C157.83 9.25225 158.076 9.37325 158.354 9.45392C158.632 9.52562 158.914 9.56147 159.201 9.56147C159.407 9.56147 159.613 9.54355 159.82 9.50769C160.026 9.47184 160.218 9.40462 160.398 9.30603C160.577 9.20743 160.72 9.06851 160.828 8.88925C160.935 8.70999 160.989 8.47695 160.989 8.19014C160.989 7.93021 160.94 7.7151 160.841 7.5448C160.752 7.3745 160.622 7.24454 160.451 7.15491C160.29 7.05632 160.102 6.9891 159.887 6.95324C159.681 6.90843 159.461 6.88602 159.228 6.88602H158.179V5.44746H158.865C159.125 5.44746 159.362 5.42057 159.578 5.3668C159.793 5.31302 159.981 5.23683 160.142 5.13824C160.304 5.03068 160.425 4.89624 160.505 4.73491C160.595 4.57357 160.64 4.38087 160.64 4.15679C160.64 3.83413 160.568 3.58316 160.425 3.4039C160.29 3.22464 160.106 3.09916 159.873 3.02746C159.64 2.94679 159.385 2.90646 159.107 2.90646C158.856 2.90646 158.614 2.94679 158.381 3.02746C158.148 3.09916 157.946 3.2112 157.776 3.36357C157.606 3.51594 157.498 3.70864 157.453 3.94168H155.813C155.867 3.49353 155.997 3.10812 156.203 2.78546C156.409 2.46279 156.665 2.19838 156.969 1.99223C157.283 1.77712 157.633 1.62027 158.018 1.52168C158.403 1.42308 158.802 1.37379 159.215 1.37379C159.618 1.37379 160.003 1.4186 160.371 1.50823C160.747 1.59786 161.079 1.74575 161.366 1.9519C161.652 2.14909 161.881 2.40901 162.051 2.73168C162.222 3.05435 162.307 3.44872 162.307 3.91479C162.307 4.21057 162.257 4.48842 162.159 4.74835C162.06 5.00828 161.917 5.23683 161.729 5.43402C161.549 5.6312 161.33 5.79254 161.07 5.91802C161.428 6.01661 161.729 6.17795 161.971 6.40202C162.213 6.61713 162.392 6.87706 162.508 7.1818C162.634 7.48654 162.697 7.82265 162.697 8.19014C162.697 8.76377 162.589 9.24329 162.374 9.62869C162.168 10.0051 161.89 10.3009 161.54 10.516C161.2 10.7311 160.823 10.8835 160.411 10.9731C159.999 11.0628 159.591 11.1076 159.188 11.1076ZM165.996 11.1614C165.709 11.1614 165.463 11.0673 165.256 10.879C165.059 10.6908 164.961 10.4354 164.961 10.1127C164.961 9.79003 165.064 9.53458 165.27 9.34636C165.476 9.14917 165.723 9.05058 166.009 9.05058C166.296 9.05058 166.538 9.14917 166.735 9.34636C166.933 9.53458 167.031 9.79003 167.031 10.1127C167.031 10.4354 166.933 10.6908 166.735 10.879C166.538 11.0673 166.292 11.1614 165.996 11.1614ZM169.393 11V9.61525L172.042 7.38347C172.257 7.20421 172.494 7.00702 172.754 6.79191C173.014 6.5768 173.261 6.34376 173.494 6.0928C173.736 5.83287 173.937 5.56398 174.099 5.28613C174.26 5.00828 174.341 4.71698 174.341 4.41224C174.341 3.95513 174.202 3.59661 173.924 3.33668C173.655 3.07675 173.27 2.94679 172.768 2.94679C172.329 2.94679 171.97 3.0409 171.692 3.22912C171.414 3.41735 171.24 3.67279 171.168 3.99546H169.514C169.577 3.39494 169.77 2.90646 170.092 2.53001C170.424 2.1446 170.832 1.85779 171.316 1.66957C171.8 1.47238 172.306 1.37379 172.835 1.37379C173.435 1.37379 173.973 1.48582 174.448 1.7099C174.923 1.92501 175.3 2.24768 175.578 2.6779C175.864 3.09916 176.008 3.61453 176.008 4.22402C176.008 4.77076 175.9 5.26372 175.685 5.70291C175.479 6.14209 175.197 6.54543 174.838 6.91291C174.489 7.27143 174.103 7.62547 173.682 7.97502L171.867 9.46736H176.035V11H169.393Z" fill="#F0F4FE"/>
</g>
<defs>
<filter id="filter0_d_14_1544" x="0.434326" y="0.373779" width="182.6" height="44.0418" filterUnits="userSpaceOnUse" color-interpolation-filters="sRGB">
<feFlood flood-opacity="0" result="BackgroundImageFix"/>
<feColorMatrix in="SourceAlpha" type="matrix" values="0 0 0 0 0 0 0 0 0 0 0 0 0 0 0 0 0 0 127 0" result="hardAlpha"/>
<feOffset dx="3" dy="3"/>
<feGaussianBlur stdDeviation="2"/>
<feComposite in2="hardAlpha" operator="out"/>
<feColorMatrix type="matrix" values="0 0 0 0 0 0 0 0 0 0 0 0 0 0 0 0 0 0 0.25 0"/>
<feBlend mode="normal" in2="BackgroundImageFix" result="effect1_dropShadow_14_1544"/>
<feBlend mode="normal" in="SourceGraphic" in2="effect1_dropShadow_14_1544" result="shape"/>
</filter>
</defs>
</svg>
