<svg width="30" height="30" viewBox="0 0 30 30" fill="none" xmlns="http://www.w3.org/2000/svg">
<g clip-path="url(#clip0_1_1060)">
<g filter="url(#filter0_d_1_1060)">
<path d="M10.5556 11.8824H19.4444M10.5556 16.5882H17.2222M21.6667 6C22.5507 6 23.3986 6.37185 24.0237 7.03374C24.6488 7.69563 25 8.59335 25 9.52941V18.9412C25 19.8772 24.6488 20.775 24.0237 21.4368C23.3986 22.0987 22.5507 22.4706 21.6667 22.4706H16.1111L10.5556 26V22.4706H8.33333C7.44928 22.4706 6.60143 22.0987 5.97631 21.4368C5.35119 20.775 5 19.8772 5 18.9412V9.52941C5 8.59335 5.35119 7.69563 5.97631 7.03374C6.60143 6.37185 7.44928 6 8.33333 6H21.6667Z" stroke="#F0F4FE" stroke-width="2.3" stroke-linecap="round" stroke-linejoin="round" shape-rendering="crispEdges"/>
</g>
</g>
<defs>
<filter id="filter0_d_1_1060" x="1.34998" y="2.3501" width="30.3" height="30.2998" filterUnits="userSpaceOnUse" color-interpolation-filters="sRGB">
<feFlood flood-opacity="0" result="BackgroundImageFix"/>
<feColorMatrix in="SourceAlpha" type="matrix" values="0 0 0 0 0 0 0 0 0 0 0 0 0 0 0 0 0 0 127 0" result="hardAlpha"/>
<feOffset dx="1.5" dy="1.5"/>
<feGaussianBlur stdDeviation="2"/>
<feComposite in2="hardAlpha" operator="out"/>
<feColorMatrix type="matrix" values="0 0 0 0 0 0 0 0 0 0 0 0 0 0 0 0 0 0 0.35 0"/>
<feBlend mode="normal" in2="BackgroundImageFix" result="effect1_dropShadow_1_1060"/>
<feBlend mode="normal" in="SourceGraphic" in2="effect1_dropShadow_1_1060" result="shape"/>
</filter>
<clipPath id="clip0_1_1060">
<rect width="30" height="30" fill="white"/>
</clipPath>
</defs>
</svg>
