<svg width="30" height="30" viewBox="0 0 30 30" fill="none" xmlns="http://www.w3.org/2000/svg">
<g clip-path="url(#clip0_1_1058)">
<g filter="url(#filter0_d_1_1058)">
<path d="M7.15271 7H11.6427L13.0897 10.618L10.7647 12.168C10.6278 12.2593 10.5155 12.3831 10.4379 12.5282C10.3603 12.6734 10.3197 12.8354 10.3197 13C10.3227 13.094 10.3197 13.001 10.3197 13.001V13.022C10.3202 13.0667 10.3222 13.1114 10.3257 13.156C10.331 13.2387 10.3427 13.3487 10.3607 13.486C10.3997 13.756 10.4747 14.128 10.6207 14.566C10.9147 15.446 11.4907 16.585 12.6127 17.707C13.7347 18.829 14.8737 19.405 15.7527 19.699C16.1917 19.845 16.5627 19.919 16.8347 19.959C16.9881 19.9813 17.1427 19.9947 17.2977 19.999L17.3107 20H17.3187C17.3187 20 17.4307 19.994 17.3197 20C17.5054 19.9999 17.6873 19.9481 17.8452 19.8504C18.0031 19.7528 18.1307 19.6131 18.2137 19.447L18.8837 18.107L23.3197 18.847V23.167C21.2087 23.472 15.5067 23.773 11.0267 19.293C6.54671 14.813 6.84671 9.11 7.15271 7ZM12.3927 13.486L14.1997 12.282C14.5815 12.0274 14.864 11.6492 15 11.211C15.1361 10.7727 15.1172 10.301 14.9467 9.875L13.4997 6.257C13.3512 5.88591 13.095 5.56781 12.764 5.34376C12.433 5.11971 12.0424 4.99997 11.6427 5H7.10071C6.19171 5 5.33671 5.631 5.18771 6.617C4.84771 8.859 4.38671 15.481 9.61271 20.707C14.8387 25.933 21.4607 25.471 23.7027 25.132C24.6887 24.982 25.3197 24.128 25.3197 23.219V18.847C25.3198 18.3736 25.1519 17.9155 24.8459 17.5542C24.5399 17.1929 24.1157 16.9519 23.6487 16.874L19.2127 16.135C18.7908 16.0646 18.3574 16.1313 17.9762 16.3253C17.595 16.5193 17.2861 16.8304 17.0947 17.213L16.7487 17.906C16.6264 17.8756 16.5053 17.8406 16.3857 17.801C15.7657 17.595 14.9047 17.171 14.0267 16.293C13.1487 15.415 12.7247 14.554 12.5187 13.933C12.4702 13.786 12.4284 13.6369 12.3937 13.486H12.3927Z" fill="#F0F4FE"/>
</g>
</g>
<defs>
<filter id="filter0_d_1_1058" x="4" y="4" width="28.3197" height="28.3193" filterUnits="userSpaceOnUse" color-interpolation-filters="sRGB">
<feFlood flood-opacity="0" result="BackgroundImageFix"/>
<feColorMatrix in="SourceAlpha" type="matrix" values="0 0 0 0 0 0 0 0 0 0 0 0 0 0 0 0 0 0 127 0" result="hardAlpha"/>
<feOffset dx="3" dy="3"/>
<feGaussianBlur stdDeviation="2"/>
<feComposite in2="hardAlpha" operator="out"/>
<feColorMatrix type="matrix" values="0 0 0 0 0 0 0 0 0 0 0 0 0 0 0 0 0 0 0.25 0"/>
<feBlend mode="normal" in2="BackgroundImageFix" result="effect1_dropShadow_1_1058"/>
<feBlend mode="normal" in="SourceGraphic" in2="effect1_dropShadow_1_1058" result="shape"/>
</filter>
<clipPath id="clip0_1_1058">
<rect width="30" height="30" fill="white"/>
</clipPath>
</defs>
</svg>
