<svg width="160" height="160" viewBox="0 0 160 160" fill="none" xmlns="http://www.w3.org/2000/svg">
<path d="M160 80C160 124.183 124.183 160 80 160C35.8172 160 0 124.183 0 80C0 35.8172 35.8172 0 80 0C124.183 0 160 35.8172 160 80ZM16 80C16 115.346 44.6538 144 80 144C115.346 144 144 115.346 144 80C144 44.6538 115.346 16 80 16C44.6538 16 16 44.6538 16 80Z" fill="url(#paint0_linear_1_2776)"/>
<path d="M149.622 80.4324C149.622 118.644 118.645 149.622 80.4324 149.622C42.2203 149.622 11.2432 118.644 11.2432 80.4324C11.2432 42.2202 42.2203 11.2432 80.4324 11.2432C118.645 11.2432 149.622 42.2202 149.622 80.4324ZM18.854 80.4324C18.854 114.441 46.4236 142.011 80.4324 142.011C114.441 142.011 142.011 114.441 142.011 80.4324C142.011 46.4236 114.441 18.854 80.4324 18.854C46.4236 18.854 18.854 46.4236 18.854 80.4324Z" fill="url(#paint1_linear_1_2776)"/>
<circle cx="80.4324" cy="80.4323" r="64.8649" fill="url(#paint2_radial_1_2776)"/>
<path d="M149.622 80C149.622 118.451 118.451 149.622 80 149.622C41.549 149.622 10.3784 118.451 10.3784 80C10.3784 41.5491 41.549 10.3784 80 10.3784C118.451 10.3784 149.622 41.5491 149.622 80ZM11.7708 80C11.7708 117.682 42.318 148.229 80 148.229C117.682 148.229 148.229 117.682 148.229 80C148.229 42.3181 117.682 11.7709 80 11.7709C42.318 11.7709 11.7708 42.3181 11.7708 80Z" fill="#091D50"/>
<g filter="url(#filter0_d_1_2776)">
<path d="M95.4831 78.1431C97.2128 79.1418 97.2128 81.6384 95.4831 82.6371L74.7896 94.5845C73.0599 95.5831 70.8977 94.3348 70.8977 92.3375V68.4427C70.8977 66.4454 73.0599 65.1971 74.7896 66.1957L95.4831 78.1431Z" stroke="#091D50" stroke-width="1.2973" shape-rendering="crispEdges"/>
</g>
<g filter="url(#filter1_f_1_2776)">
<path d="M95.4831 78.1441C97.2128 79.1428 97.2128 81.6394 95.4831 82.6381L74.7896 94.5855C73.0599 95.5841 70.8977 94.3358 70.8977 92.3385V68.4437C70.8977 66.4464 73.0599 65.1981 74.7896 66.1967L95.4831 78.1441Z" stroke="#5990FD" stroke-width="5"/>
</g>
<path d="M95.4831 78.1441C97.2128 79.1428 97.2128 81.6394 95.4831 82.6381L74.7896 94.5855C73.0599 95.5841 70.8977 94.3358 70.8977 92.3385V68.4437C70.8977 66.4464 73.0599 65.1981 74.7896 66.1967L95.4831 78.1441Z" stroke="#94B8FE" stroke-width="3"/>
<defs>
<filter id="filter0_d_1_2776" x="68.2491" y="63.1948" width="31.18" height="34.3906" filterUnits="userSpaceOnUse" color-interpolation-filters="sRGB">
<feFlood flood-opacity="0" result="BackgroundImageFix"/>
<feColorMatrix in="SourceAlpha" type="matrix" values="0 0 0 0 0 0 0 0 0 0 0 0 0 0 0 0 0 0 127 0" result="hardAlpha"/>
<feOffset/>
<feGaussianBlur stdDeviation="1"/>
<feComposite in2="hardAlpha" operator="out"/>
<feColorMatrix type="matrix" values="0 0 0 0 0 0 0 0 0 0 0 0 0 0 0 0 0 0 0.25 0"/>
<feBlend mode="normal" in2="BackgroundImageFix" result="effect1_dropShadow_1_2776"/>
<feBlend mode="normal" in="SourceGraphic" in2="effect1_dropShadow_1_2776" result="shape"/>
</filter>
<filter id="filter1_f_1_2776" x="64.9383" y="59.8818" width="37.8015" height="41.018" filterUnits="userSpaceOnUse" color-interpolation-filters="sRGB">
<feFlood flood-opacity="0" result="BackgroundImageFix"/>
<feBlend mode="normal" in="SourceGraphic" in2="BackgroundImageFix" result="shape"/>
<feGaussianBlur stdDeviation="1.72973" result="effect1_foregroundBlur_1_2776"/>
</filter>
<linearGradient id="paint0_linear_1_2776" x1="80" y1="0" x2="80" y2="160" gradientUnits="userSpaceOnUse">
<stop stop-color="#0C1E52"/>
<stop offset="0.548077" stop-color="#1B3988"/>
</linearGradient>
<linearGradient id="paint1_linear_1_2776" x1="80.4324" y1="11.2432" x2="80.4324" y2="149.622" gradientUnits="userSpaceOnUse">
<stop stop-color="#2E45AB"/>
<stop offset="0.605769" stop-color="#1E3581"/>
<stop offset="1" stop-color="#3452C0"/>
</linearGradient>
<radialGradient id="paint2_radial_1_2776" cx="0" cy="0" r="1" gradientUnits="userSpaceOnUse" gradientTransform="translate(80.4324 145.297) rotate(-90) scale(129.73)">
<stop offset="0.278846" stop-color="#3452C0"/>
<stop offset="1" stop-color="#0F2156"/>
</radialGradient>
</defs>
</svg>
